# Blender v2.75 (sub 0) OBJ File: 'untitled.blend'
# www.blender.org
mtllib center.mtl
o center_Brain.007
v 0.520098 -0.735615 0.220494
v 0.541813 -0.439942 0.090434
v 0.419287 -0.763070 0.496743
v -0.053000 -0.881709 0.871493
v -0.275629 -1.593732 1.137582
v 0.224596 -1.182158 1.003320
v 0.010057 -0.012070 0.233601
v 0.363781 -0.208840 0.143453
v 0.191751 -0.117310 0.071905
v 0.168388 -0.857925 0.874756
v 0.093736 -0.494806 0.657308
v 0.022696 -1.967871 0.950817
v -0.092751 -1.744379 0.499792
v 0.152949 -1.651089 0.521726
v -0.646397 -1.110270 0.277372
v -0.546367 -1.322114 0.560687
v -0.529457 -1.008122 0.617307
v -0.500865 -0.880367 -0.055817
v -0.590098 -1.157113 0.146417
v -0.610704 -0.953874 0.130320
v -0.218809 -0.511024 -0.050275
v -0.376191 -0.853882 -0.145693
v -0.513888 -0.474919 0.057520
v -0.023441 -0.158975 0.096449
v 0.010578 -0.179958 0.282468
v -0.093156 -0.299738 0.354954
v -0.049980 -0.375886 0.571901
v -0.397158 -0.281958 0.066876
v 0.208540 -1.732375 0.820338
v 0.335216 -1.451708 0.515387
v 0.248119 -1.667674 0.987461
v 0.029826 -0.295382 0.311071
v -0.261542 -1.941730 0.935755
v -0.076313 -1.983032 0.893614
v -0.114054 -1.935940 1.081642
v 0.113216 -1.127560 -0.131146
v -0.026418 -0.930562 -0.204567
v 0.281556 -0.976134 -0.130451
v -0.057720 -1.272742 -0.067083
v -0.140129 -1.090806 -0.170189
v 0.412957 -1.154915 0.574856
v 0.310582 -1.236391 0.973022
v 0.082052 -1.372805 0.051037
v -0.281255 -1.825957 1.152132
v -0.373515 -1.781273 1.047849
v -0.129935 -0.348123 0.600096
v -0.294604 -0.856704 0.858827
v -0.184486 -0.762263 -0.160429
v 0.253580 -0.647956 -0.108791
v 0.517902 -1.126630 0.214714
v 0.277355 -0.682327 0.673196
v -0.566965 -0.665184 0.369398
v -0.032004 -0.256296 0.016771
v -0.105098 -0.076478 0.118672
v 0.391071 -0.355927 -0.004875
v -0.491605 -1.345671 0.857963
v -0.379339 -1.593728 1.085308
v -0.432334 -1.093522 0.896299
v 0.128520 -0.185810 0.499302
v -0.465984 -0.455955 0.440167
v -0.468522 -1.502825 0.521723
v -0.350222 -1.488008 0.290637
v -0.220320 -1.899313 0.783505
v -0.000253 -0.069632 0.380733
v 0.213048 -0.109267 0.312219
v 0.261015 -1.411919 0.199098
v -0.417788 -1.084507 -0.070516
v -0.271714 -0.321394 0.565773
v 0.510584 -0.499453 0.012703
v 0.347488 -1.155102 -0.037783
v 0.443282 -1.283918 0.210130
v 0.477194 -1.003855 0.037666
v -0.612262 -1.290523 0.299703
v -0.211340 -0.142897 0.432064
v -0.014659 -0.400179 0.514635
v -0.323293 -1.304021 0.035715
v -0.545395 -0.425933 0.156117
v 0.370252 -0.302220 0.366093
v 0.010750 -0.324418 0.582006
v -0.342435 -0.130239 0.213108
v -0.375525 -0.287604 0.453205
v 0.054851 -1.831189 1.160837
v 0.042901 -1.606866 1.133002
vt 0.715885 0.342662
vt 0.756439 0.269473
vt 0.756439 0.407332
vt 0.205819 0.093882
vt 0.001110 0.093882
vt 0.144732 0.001110
vt 0.824395 0.724040
vt 0.931573 0.724040
vt 0.886442 0.753051
vt 0.520048 0.722052
vt 0.514876 0.664731
vt 0.625954 0.664730
vt 0.383705 0.346419
vt 0.501057 0.282830
vt 0.525604 0.346419
vt 0.568309 0.348639
vt 0.642203 0.408369
vt 0.568309 0.445228
vt 0.249961 0.965851
vt 0.158419 0.965851
vt 0.200496 0.933689
vt 0.514876 0.620709
vt 0.514876 0.520136
vt 0.595064 0.604918
vt 0.922519 0.002574
vt 0.948767 0.044158
vt 0.922519 0.080754
vt 0.464883 0.615567
vt 0.439155 0.560851
vt 0.464883 0.523888
vt 0.819105 0.347429
vt 0.879200 0.401606
vt 0.797472 0.401606
vt 0.758660 0.375336
vt 0.795251 0.269473
vt 0.795251 0.405520
vt 0.815305 0.952790
vt 0.794091 0.930002
vt 0.815305 0.885638
vt 0.257796 0.620426
vt 0.302935 0.598360
vt 0.302935 0.649399
vt 0.217688 0.929539
vt 0.224849 0.864704
vt 0.276209 0.929539
vt 0.937634 0.383753
vt 0.881421 0.405522
vt 0.881421 0.347429
vt 0.001110 0.225923
vt 0.176467 0.225923
vt 0.091543 0.293164
vt 0.581913 0.096103
vt 0.619897 0.134352
vt 0.581913 0.286907
vt 0.506775 0.791095
vt 0.468981 0.791095
vt 0.479252 0.733726
vt 0.464915 0.460657
vt 0.324066 0.521667
vt 0.308921 0.460657
vt 0.338697 0.588842
vt 0.308921 0.523888
vt 0.436934 0.523888
vt 0.334710 0.068953
vt 0.404355 0.001110
vt 0.479274 0.068953
vt 0.355842 0.271907
vt 0.355842 0.096103
vt 0.413455 0.119376
vt 0.308921 0.381266
vt 0.399833 0.348639
vt 0.399833 0.458436
vt 0.431519 0.452408
vt 0.402053 0.438500
vt 0.458714 0.438500
vt 0.514876 0.936754
vt 0.597646 0.936754
vt 0.556781 0.971517
vt 0.353621 0.271907
vt 0.294764 0.180971
vt 0.353621 0.096103
vt 0.767635 0.039592
vt 0.684425 0.001110
vt 0.823304 0.001110
vt 0.684425 0.041812
vt 0.791960 0.041812
vt 0.702921 0.062051
vt 0.756847 0.843601
vt 0.698608 0.808585
vt 0.839914 0.808585
vt 0.381484 0.295385
vt 0.239615 0.346419
vt 0.178687 0.295385
vt 0.476157 0.137388
vt 0.529186 0.096103
vt 0.529186 0.265379
vt 0.599867 0.994287
vt 0.653728 0.967499
vt 0.667272 0.994287
vt 0.030737 0.830220
vt 0.001110 0.800148
vt 0.165975 0.800148
vt 0.122961 0.295385
vt 0.176466 0.355892
vt 0.001110 0.355892
vt 0.905204 0.892814
vt 0.932409 0.845822
vt 0.964005 0.892814
vt 0.904114 0.523417
vt 0.904114 0.459787
vt 0.948033 0.490577
vt 0.146082 0.488487
vt 0.148700 0.549307
vt 0.001110 0.549307
vt 0.898349 0.721819
vt 0.824395 0.718683
vt 0.898347 0.664730
vt 0.420000 0.857601
vt 0.308921 0.857601
vt 0.368731 0.812998
vt 0.308921 0.770998
vt 0.457822 0.733726
vt 0.466761 0.770998
vt 0.806196 0.806364
vt 0.698608 0.806364
vt 0.744330 0.756472
vt 0.862113 0.345208
vt 0.939268 0.319463
vt 0.945786 0.345208
vt 0.622117 0.298283
vt 0.632930 0.261041
vt 0.675078 0.298283
vt 0.808417 0.756472
vt 0.901441 0.756472
vt 0.841464 0.803691
vt 0.848099 0.084809
vt 0.884222 0.002574
vt 0.884222 0.121666
vt 0.686963 0.922635
vt 0.662429 0.905699
vt 0.686963 0.789162
vt 0.485003 0.071174
vt 0.490703 0.093515
vt 0.334710 0.093515
vt 0.412718 0.950850
vt 0.498176 0.950850
vt 0.448511 0.978141
vt 0.755093 0.927063
vt 0.698608 0.885638
vt 0.786264 0.885638
vt 0.985472 0.218098
vt 0.901517 0.218098
vt 0.954432 0.191434
vt 0.294743 0.561991
vt 0.294743 0.488487
vt 0.306390 0.547632
vt 0.886443 0.002574
vt 0.920299 0.036268
vt 0.886443 0.097590
vt 0.111011 0.598360
vt 0.255576 0.598360
vt 0.200033 0.650723
vt 0.292523 0.488487
vt 0.177177 0.550184
vt 0.150921 0.488487
vt 0.801888 0.613832
vt 0.725921 0.662509
vt 0.691329 0.613832
vt 0.713664 0.445228
vt 0.678119 0.342870
vt 0.713664 0.269473
vt 0.753705 0.065005
vt 0.753705 0.177014
vt 0.703258 0.113301
vt 0.456089 0.914731
vt 0.506508 0.948629
vt 0.412718 0.948629
vt 0.211713 0.765335
vt 0.174354 0.727978
vt 0.222119 0.727978
vt 0.696387 0.756472
vt 0.562152 0.786941
vt 0.514876 0.756472
vt 0.492924 0.093515
vt 0.523640 0.070588
vt 0.603483 0.093515
vt 0.433371 0.591063
vt 0.320256 0.652157
vt 0.308921 0.591063
vt 0.476157 0.279159
vt 0.496106 0.267599
vt 0.513325 0.279159
vt 0.946937 0.577699
vt 0.946937 0.529214
vt 0.973068 0.572955
vt 0.597285 0.579598
vt 0.679196 0.520136
vt 0.679196 0.601687
vt 0.661005 0.965278
vt 0.599867 0.936754
vt 0.696099 0.936754
vt 0.797472 0.345208
vt 0.848198 0.269473
vt 0.859892 0.345208
vt 0.845878 0.065005
vt 0.845878 0.121666
vt 0.755925 0.089620
vt 0.224340 0.124926
vt 0.292544 0.096103
vt 0.292544 0.286907
vt 0.644424 0.409277
vt 0.673277 0.348639
vt 0.673277 0.426819
vt 0.767777 0.965925
vt 0.739037 0.994502
vt 0.698608 0.965925
vt 0.001110 0.972770
vt 0.045762 0.937197
vt 0.064718 0.972770
vt 0.715353 0.724272
vt 0.650480 0.754251
vt 0.514876 0.724272
vt 0.951449 0.839726
vt 0.842134 0.839726
vt 0.893749 0.808585
vt 0.111011 0.652944
vt 0.274060 0.652944
vt 0.210926 0.692702
vt 0.946081 0.254987
vt 0.996095 0.221336
vt 0.998890 0.254987
vt 0.313237 0.001110
vt 0.332489 0.090208
vt 0.208040 0.090208
vt 0.920182 0.448865
vt 0.908824 0.409552
vt 0.967626 0.409552
vt 0.622117 0.096103
vt 0.701038 0.149862
vt 0.622117 0.177014
vt 0.974123 0.267328
vt 0.946081 0.308246
vt 0.946081 0.257207
vt 0.794043 0.409552
vt 0.826963 0.456763
vt 0.715885 0.456763
vt 0.282606 0.932441
vt 0.372210 0.903178
vt 0.406409 0.932441
vt 0.505978 0.912510
vt 0.412718 0.912510
vt 0.451920 0.872146
vt 0.736559 0.221336
vt 0.774062 0.258821
vt 0.622117 0.258821
vt 0.001110 0.427967
vt 0.109036 0.358112
vt 0.142416 0.427967
vt 0.001110 0.880230
vt 0.067149 0.880230
vt 0.016347 0.934977
vt 0.308921 0.701983
vt 0.512637 0.701983
vt 0.314345 0.731505
vt 0.889385 0.529214
vt 0.894433 0.587087
vt 0.820389 0.587087
vt 0.001110 0.832441
vt 0.106458 0.832441
vt 0.069768 0.878010
vt 0.514876 0.348639
vt 0.566089 0.444127
vt 0.514876 0.517915
vt 0.631084 0.603908
vt 0.680354 0.619371
vt 0.597285 0.619371
vt 0.514876 0.828198
vt 0.624190 0.828198
vt 0.544406 0.873295
vt 0.531567 0.064488
vt 0.481495 0.001110
vt 0.605298 0.001110
vt 0.512655 0.348639
vt 0.512655 0.436279
vt 0.402053 0.369085
vt 0.415676 0.251899
vt 0.415676 0.096103
vt 0.473936 0.250330
vt 0.583596 0.622930
vt 0.689109 0.662509
vt 0.514876 0.662509
vt 0.698608 0.883418
vt 0.713144 0.845822
vt 0.815305 0.883418
vt 0.292523 0.596140
vt 0.111011 0.596140
vt 0.221950 0.552405
vt 0.906603 0.409552
vt 0.860627 0.456647
vt 0.829183 0.409552
vt 0.173302 0.358112
vt 0.173302 0.416289
vt 0.144637 0.365480
vt 0.514876 0.825977
vt 0.615865 0.789162
vt 0.660209 0.825977
vt 0.886443 0.099810
vt 0.976589 0.099810
vt 0.932134 0.126087
vt 0.001110 0.763260
vt 0.045457 0.727978
vt 0.171418 0.763260
vt 0.217780 0.783805
vt 0.289127 0.833429
vt 0.183779 0.833430
vt 0.469650 0.617194
vt 0.469650 0.438500
vt 0.512655 0.467451
vt 0.381484 0.274808
vt 0.327516 0.293164
vt 0.303102 0.274808
vt 0.901893 0.459787
vt 0.880876 0.506864
vt 0.808103 0.459787
vt 0.193834 0.159224
vt 0.001110 0.096103
vt 0.222119 0.096103
vt 0.745353 0.587104
vt 0.726521 0.529214
vt 0.818168 0.529214
vt 0.641426 0.904960
vt 0.514876 0.904960
vt 0.554606 0.875516
vt 0.527825 0.278578
vt 0.546285 0.277560
vt 0.546285 0.298299
vt 0.464328 0.254120
vt 0.468700 0.274393
vt 0.415676 0.274393
vt 0.154862 0.902555
vt 0.114894 0.864704
vt 0.215467 0.864704
vt 0.514876 0.934533
vt 0.637007 0.907181
vt 0.638882 0.934533
vt 0.578217 0.346419
vt 0.527825 0.300520
vt 0.675415 0.300520
vt 0.973319 0.931248
vt 0.930175 0.968234
vt 0.913603 0.931248
vt 0.077817 0.904775
vt 0.215467 0.904775
vt 0.202681 0.931468
vt 0.776282 0.265000
vt 0.806026 0.221336
vt 0.877501 0.265000
vt 0.726521 0.489773
vt 0.805882 0.459787
vt 0.805883 0.526993
vt 0.724415 0.219115
vt 0.622117 0.179234
vt 0.772886 0.179234
vt 0.607518 0.088041
vt 0.642905 0.001110
vt 0.682205 0.088041
vt 0.879722 0.221336
vt 0.919276 0.286960
vt 0.879722 0.316737
vt 0.911382 0.931248
vt 0.865617 0.963984
vt 0.817525 0.931248
vt 0.742872 0.729689
vt 0.749482 0.664730
vt 0.822175 0.729689
vt 0.178687 0.430233
vt 0.306373 0.430233
vt 0.209758 0.480391
vt 0.178687 0.253998
vt 0.219581 0.225923
vt 0.219581 0.291217
vt 0.681417 0.459787
vt 0.724300 0.528818
vt 0.681417 0.601687
vt 0.308921 0.699762
vt 0.381158 0.654378
vt 0.450523 0.699762
vt 0.900570 0.684155
vt 0.955772 0.664730
vt 0.955772 0.719534
vt 0.775107 0.151520
vt 0.849490 0.168351
vt 0.775107 0.219115
vt 0.289127 0.781585
vt 0.224340 0.710428
vt 0.289127 0.697629
vt 0.096833 0.797927
vt 0.001110 0.765481
vt 0.171418 0.765481
vt 0.156199 0.973027
vt 0.077817 0.973027
vt 0.100127 0.933689
vt 0.308921 0.773219
vt 0.454254 0.773219
vt 0.367799 0.810778
vt 0.579692 0.274797
vt 0.531407 0.157821
vt 0.579692 0.096103
vt 0.946137 0.652795
vt 0.880322 0.652795
vt 0.911815 0.598901
vt 0.282606 0.968488
vt 0.325771 0.934662
vt 0.369514 0.968488
vt 0.469531 0.812998
vt 0.505978 0.869925
vt 0.422221 0.869925
vt 0.878102 0.644037
vt 0.804109 0.662509
vt 0.804109 0.598901
vt 0.994328 0.896379
vt 0.953081 0.923658
vt 0.926924 0.896379
vt 0.568309 0.447449
vt 0.675898 0.447449
vt 0.618951 0.507249
vt 0.512655 0.676998
vt 0.452844 0.696038
vt 0.452844 0.619415
vt 0.675463 0.664730
vt 0.740651 0.715735
vt 0.628175 0.715735
vt 0.382791 0.859822
vt 0.406409 0.900958
vt 0.308921 0.900958
vt 0.104194 0.611991
vt 0.088641 0.601994
vt 0.104194 0.551528
vt 0.172090 0.486266
vt 0.001110 0.486266
vt 0.061489 0.430187
vt 0.196122 0.161445
vt 0.204826 0.223702
vt 0.001110 0.223702
vt 0.166881 0.862484
vt 0.114894 0.835650
vt 0.289127 0.835650
vt 0.001110 0.634653
vt 0.106543 0.687128
vt 0.001110 0.695408
vt 0.939575 0.756472
vt 0.980294 0.792616
vt 0.903662 0.792616
vt 0.939855 0.386348
vt 0.956207 0.347429
vt 0.990099 0.386348
vt 0.956581 0.189213
vt 0.901517 0.189213
vt 0.915497 0.136222
vt 0.921496 0.221336
vt 0.943861 0.242996
vt 0.921496 0.313014
vt 0.204486 0.348639
vt 0.306700 0.428012
vt 0.178687 0.428012
vt 0.001110 0.725757
vt 0.066807 0.697629
vt 0.222119 0.725757
vt 0.001110 0.632433
vt 0.018310 0.551528
vt 0.086421 0.632432
vt 0.944716 0.594443
vt 0.896654 0.547866
vt 0.944716 0.529214
vt 0.836575 0.966205
vt 0.887079 0.992639
vt 0.817525 0.992639
vt 0.876606 0.845822
vt 0.902983 0.894158
vt 0.817525 0.894158
vt 0.698608 0.929283
vt 0.788833 0.929283
vt 0.746838 0.963705
vt 0.869779 0.896379
vt 0.924703 0.929027
vt 0.817525 0.929027
vt 0.851711 0.136222
vt 0.899296 0.209818
vt 0.851711 0.219115
vn 0.986700 0.023000 0.161100
vn 0.941800 0.309100 -0.132000
vn 0.889800 0.165900 0.425100
vn -0.025100 0.417000 0.908500
vn -0.223200 0.201400 0.953700
vn 0.265300 0.318500 0.910000
vn 0.047400 0.998500 -0.026900
vn 0.685900 0.714900 -0.135700
vn 0.269900 0.750400 -0.603400
vn 0.270500 0.455800 0.848000
vn 0.126000 0.465300 0.876100
vn 0.458400 -0.887800 0.040700
vn 0.019200 -0.826300 -0.562900
vn 0.526000 -0.755600 -0.390300
vn -0.998600 -0.051700 -0.012100
vn -0.963700 -0.199200 0.177900
vn -0.932900 0.130300 0.335700
vn -0.727400 -0.008300 -0.686100
vn -0.778600 -0.347100 -0.522800
vn -0.937700 0.016700 -0.347000
vn -0.156000 0.341700 -0.926800
vn -0.388900 0.071000 -0.918500
vn -0.691100 0.287200 -0.663200
vn 0.034700 0.464000 -0.885200
vn -0.379500 -0.895800 -0.231400
vn 0.970100 0.183900 0.158400
vn -0.021100 0.428500 0.903300
vn -0.498700 0.508500 -0.701900
vn 0.787100 -0.601000 -0.138600
vn 0.870500 -0.491500 -0.023900
vn 0.871800 -0.333800 0.358500
vn -0.787300 0.571400 0.231500
vn -0.541900 -0.840400 -0.003700
vn 0.054800 -0.976900 -0.206400
vn -0.055500 -0.841500 0.537400
vn 0.198300 -0.421800 -0.884700
vn 0.045700 -0.002700 -0.998900
vn 0.410800 -0.116500 -0.904200
vn -0.019500 -0.631200 -0.775300
vn -0.137000 -0.346100 -0.928100
vn 0.965600 -0.107200 0.236900
vn 0.773000 0.098500 0.626700
vn 0.187500 -0.724000 -0.663700
vn -0.428300 -0.410200 0.805100
vn -0.868600 -0.403100 0.288000
vn 0.053300 0.476500 0.877500
vn -0.265400 0.421500 0.867100
vn -0.106200 0.290800 -0.950900
vn 0.195500 0.206400 -0.958700
vn 0.969400 -0.235000 -0.070700
vn 0.650300 0.394600 0.649000
vn -0.935000 0.216400 0.280900
vn -0.058400 0.414600 -0.908100
vn -0.168200 0.754000 -0.634900
vn 0.396100 0.449800 -0.800500
vn -0.940900 -0.006700 0.338700
vn -0.721300 0.068300 0.689200
vn -0.665400 0.275200 0.693900
vn 0.295000 0.626500 0.721300
vn -0.813800 0.369200 0.448700
vn -0.797800 -0.574600 -0.182700
vn -0.453400 -0.736400 -0.502100
vn -0.397900 -0.804700 -0.440500
vn 0.020100 0.860900 0.508300
vn 0.513100 0.819900 0.253900
vn 0.430400 -0.749500 -0.502900
vn -0.508300 -0.367700 -0.778700
vn -0.374100 0.526600 0.763300
vn 0.747900 0.112100 -0.654300
vn 0.523000 -0.457900 -0.718900
vn 0.773500 -0.569100 -0.278900
vn 0.822800 -0.178500 -0.539600
vn -0.860400 -0.469200 -0.198700
vn -0.312200 0.775400 0.548800
vn -0.483600 0.773500 -0.409600
vn -0.363400 -0.647300 -0.670000
vn -0.914300 0.388900 -0.112900
vn 0.751200 0.466500 0.466900
vn -0.074600 0.453100 0.888300
vn -0.593200 0.800200 -0.087500
vn -0.693400 0.519900 0.498900
vn 0.416700 -0.396000 0.818200
vn 0.172900 0.179100 0.968500
usemtl fluid_yellow
s 1
f 1/1/1 2/2/2 3/3/3
f 4/4/4 5/5/5 6/6/6
f 7/7/7 8/8/8 9/9/9
f 4/10/4 10/11/10 11/12/11
f 12/13/12 13/14/13 14/15/14
f 15/16/15 16/17/16 17/18/17
f 18/19/18 19/20/19 20/21/20
f 21/22/21 22/23/22 23/24/23
f 24/25/24 25/26/25 26/27/26
f 27/28/27 26/29/26 25/30/25
f 28/31/28 21/32/21 23/33/23
f 29/34/29 30/35/30 31/36/31
f 32/37/32 25/38/25 24/39/24
f 33/40/33 34/41/34 35/42/35
f 36/43/36 37/44/37 38/45/38
f 36/46/36 39/47/39 40/48/40
f 31/49/31 41/50/41 42/51/42
f 39/52/39 43/53/43 13/54/13
f 44/55/44 45/56/45 33/57/33
f 46/58/46 47/59/47 4/60/4
f 48/61/48 21/62/21 49/63/49
f 41/64/41 50/65/50 1/66/1
f 42/67/42 3/68/3 51/69/51
f 15/70/15 17/71/17 52/72/52
f 24/73/24 53/74/53 54/75/54
f 55/76/55 9/77/9 8/78/8
f 42/79/42 41/80/41 3/81/3
f 56/82/56 57/83/57 58/84/58
f 42/85/42 10/86/10 6/87/6
f 11/88/11 51/89/51 59/90/59
f 60/91/60 17/92/17 58/93/58
f 61/94/61 62/95/62 63/96/63
f 44/97/44 5/98/5 57/99/57
f 63/100/63 33/101/33 61/102/61
f 30/103/30 41/104/41 31/105/31
f 64/106/64 59/107/59 65/108/65
f 44/109/44 33/110/33 35/111/35
f 43/112/43 66/113/66 13/114/13
f 67/115/67 19/116/19 18/117/18
f 11/118/11 10/119/10 51/120/51
f 47/121/47 46/122/46 68/123/68
f 17/124/17 56/125/56 58/126/58
f 1/127/1 69/128/69 2/129/2
f 19/130/19 15/131/15 20/132/20
f 66/133/66 70/134/70 71/135/71
f 63/136/63 13/137/13 34/138/34
f 12/139/12 34/140/34 13/141/13
f 27/142/27 46/143/46 4/144/4
f 71/145/71 72/146/72 50/147/50
f 16/148/16 73/149/73 61/150/61
f 7/151/7 74/152/74 64/153/64
f 27/154/27 32/155/32 75/156/75
f 15/157/15 73/158/73 16/159/16
f 41/160/41 1/161/1 3/162/3
f 69/163/69 72/164/72 38/165/38
f 59/166/59 74/167/74 68/168/68
f 13/169/13 62/170/62 76/171/76
f 30/172/30 29/173/29 14/174/14
f 48/175/48 37/176/37 22/177/22
f 19/178/19 73/179/73 15/180/15
f 77/181/77 20/182/20 15/183/15
f 68/184/68 46/185/46 59/186/59
f 78/187/78 51/188/51 3/189/3
f 46/190/46 27/191/27 79/192/79
f 69/193/69 55/194/55 2/195/2
f 73/196/73 76/197/76 62/198/62
f 54/199/54 80/200/80 7/201/7
f 78/202/78 2/203/2 8/204/8
f 54/205/54 53/206/53 28/207/28
f 76/208/76 39/209/39 13/210/13
f 32/211/32 24/212/24 26/213/26
f 68/214/68 81/215/81 60/216/60
f 67/217/67 18/218/18 22/219/22
f 47/220/47 58/221/58 57/222/57
f 70/223/70 39/224/39 36/225/36
f 42/226/42 51/227/51 10/228/10
f 75/229/75 32/230/32 26/231/26
f 2/232/2 78/233/78 3/234/3
f 7/235/7 64/236/64 65/237/65
f 28/238/28 53/239/53 21/240/21
f 12/241/12 35/242/35 34/243/34
f 10/244/10 4/245/4 6/246/6
f 30/247/30 71/248/71 50/249/50
f 54/250/54 28/251/28 80/252/80
f 11/253/11 27/254/27 4/255/4
f 51/256/51 78/257/78 59/258/59
f 74/259/74 80/260/80 81/261/81
f 5/262/5 47/263/47 57/264/57
f 40/265/40 39/266/39 76/267/76
f 5/268/5 82/269/82 83/270/83
f 62/271/62 13/272/13 63/273/63
f 79/274/79 59/275/59 46/276/46
f 39/277/39 70/278/70 43/279/43
f 41/280/41 30/281/30 50/282/50
f 55/283/55 49/284/49 53/285/53
f 45/286/45 61/287/61 33/288/33
f 31/289/31 42/290/42 82/291/82
f 22/292/22 18/293/18 23/294/23
f 77/295/77 15/296/15 52/297/52
f 78/298/78 65/299/65 59/300/59
f 77/301/77 28/302/28 23/303/23
f 14/304/14 66/305/66 71/306/71
f 11/307/11 59/308/59 79/309/79
f 50/310/50 72/311/72 69/312/69
f 44/313/44 82/314/82 5/315/5
f 45/316/45 16/317/16 61/318/61
f 9/319/9 24/320/24 54/321/54
f 37/322/37 40/323/40 22/324/22
f 60/325/60 58/326/58 68/327/68
f 66/328/66 43/329/43 70/330/70
f 56/331/56 45/332/45 57/333/57
f 75/334/75 27/335/27 79/336/79
f 79/337/79 27/338/27 11/339/11
f 48/340/48 22/341/22 21/342/21
f 83/343/83 42/344/42 6/345/6
f 14/346/14 13/347/13 66/348/66
f 74/349/74 81/350/81 68/351/68
f 20/352/20 77/353/77 23/354/23
f 73/355/73 19/356/19 76/357/76
f 73/358/73 62/359/62 61/360/61
f 52/361/52 17/362/17 60/363/60
f 80/364/80 77/365/77 81/366/81
f 77/367/77 60/368/60 81/369/81
f 80/370/80 28/371/28 77/372/77
f 82/373/82 12/374/12 31/375/31
f 20/376/20 23/377/23 18/378/18
f 35/379/35 12/380/12 82/381/82
f 14/382/14 29/383/29 12/384/12
f 38/385/38 49/386/49 69/387/69
f 36/388/36 38/389/38 70/390/70
f 67/391/67 40/392/40 76/393/76
f 7/394/7 80/395/80 74/396/74
f 1/397/1 50/398/50 69/399/69
f 9/400/9 54/401/54 7/402/7
f 14/403/14 71/404/71 30/405/30
f 45/406/45 56/407/56 16/408/16
f 65/409/65 78/410/78 8/411/8
f 44/412/44 35/413/35 82/414/82
f 67/415/67 76/416/76 19/417/19
f 40/418/40 67/419/67 22/420/22
f 57/421/57 45/422/45 44/423/44
f 56/424/56 17/425/17 16/426/16
f 52/427/52 60/428/60 77/429/77
f 9/430/9 55/431/55 53/432/53
f 29/433/29 31/434/31 12/435/12
f 27/436/27 75/437/75 26/438/26
f 6/439/6 5/440/5 83/441/83
f 4/442/4 47/443/47 5/444/5
f 83/445/83 82/446/82 42/447/42
f 48/448/48 49/449/49 37/450/37
f 55/451/55 8/452/8 2/453/2
f 33/454/33 63/455/63 34/456/34
f 72/457/72 70/458/70 38/459/38
f 25/460/25 32/461/32 27/462/27
f 53/463/53 49/464/49 21/465/21
f 58/466/58 47/467/47 68/468/68
f 38/469/38 37/470/37 49/471/49
f 36/472/36 40/473/40 37/474/37
f 24/475/24 9/476/9 53/477/53
f 70/478/70 72/479/72 71/480/71
f 74/481/74 59/482/59 64/483/64
f 65/484/65 8/485/8 7/486/7
f 49/487/49 55/488/55 69/489/69
